<svg id="f07c7e22-98bf-4d86-8ad1-8f3cd83c851d" data-name="Layer 1" xmlns="http://www.w3.org/2000/svg" viewBox="0 0 32 32"><defs><style>.f91d5a31-822f-4fd0-85d8-deb0c2921e01{fill:#fff;}</style></defs><g id="b4c20e97-725d-4d0a-a344-3c362ffa3818" data-name="cart"><path class="f91d5a31-822f-4fd0-85d8-deb0c2921e01" d="M11,20.1H25.89a.82.82,0,0,0,.79-.59L30,8a.83.83,0,0,0-.13-.72A.82.82,0,0,0,29.17,7h-20L8.55,4.34a.83.83,0,0,0-.8-.64H2.83a.82.82,0,0,0,0,1.64H7.09c.1.47,2.8,12.62,3,13.32a2.46,2.46,0,0,0,1,4.72H25.89a.82.82,0,0,0,0-1.64H11a.82.82,0,0,1,0-1.64ZM28.09,8.62l-2.81,9.84H11.68L9.5,8.62Z"/><path class="f91d5a31-822f-4fd0-85d8-deb0c2921e01" d="M10.21,25.84a2.46,2.46,0,1,0,2.46-2.46A2.46,2.46,0,0,0,10.21,25.84ZM12.67,25a.82.82,0,1,1-.82.82A.82.82,0,0,1,12.67,25Z"/><path class="f91d5a31-822f-4fd0-85d8-deb0c2921e01" d="M21.79,25.84a2.46,2.46,0,1,0,2.46-2.46A2.46,2.46,0,0,0,21.79,25.84ZM24.25,25a.82.82,0,1,1-.82.82A.82.82,0,0,1,24.25,25Z"/></g></svg>