<svg id="Layer_1" data-name="Layer 1" xmlns="http://www.w3.org/2000/svg" viewBox="0 0 32 32"><defs><style>.cls-1{fill:#fff;}</style></defs><path id="Shopping_Cart" data-name="Shopping Cart" class="cls-1" d="M23.48,27a2,2,0,1,1,2-2A2,2,0,0,1,23.48,27Zm0-3a1,1,0,1,0,1,1A1,1,0,0,0,23.48,24Zm-9,3a2,2,0,1,1,2-2A2,2,0,0,1,14.48,27Zm0-3a1,1,0,1,0,1,1A1,1,0,0,0,14.48,24Zm10.58-2h-12a1.25,1.25,0,0,1-1.21-.93L8.14,6.18A.25.25,0,0,0,7.9,6H3.48V5H7.9a1.24,1.24,0,0,1,1.21.93L9.88,9H27.22a1.25,1.25,0,0,1,1.3,1.2,1.34,1.34,0,0,1,0,.35L26.28,21A1.23,1.23,0,0,1,25.06,22ZM10.12,10l2.7,10.82a.25.25,0,0,0,.24.18h12a.25.25,0,0,0,.24-.19l2.18-10.47a.22.22,0,0,0,0-.22.26.26,0,0,0-.2-.13Z"/></svg>